<?xml version="1.0" encoding="utf-8"?>
<!-- Generator: Adobe Illustrator 16.0.0, SVG Export Plug-In . SVG Version: 6.00 Build 0)  -->
<!DOCTYPE svg PUBLIC "-//W3C//DTD SVG 1.1//EN" "http://www.w3.org/Graphics/SVG/1.1/DTD/svg11.dtd">
<svg version="1.1" id="Layer_1" xmlns="http://www.w3.org/2000/svg" xmlns:xlink="http://www.w3.org/1999/xlink" x="0px" y="0px"
	 width="612px" height="792px" viewBox="0 0 612 792" enable-background="new 0 0 612 792" xml:space="preserve">
<g>
	<path fill-rule="evenodd" clip-rule="evenodd" d="M430.056,448.47c10.923,22.209,21.716,44.144,32.499,66.082
		c11.597,23.591,23.153,47.201,34.807,70.763c1.813,3.666,2.98,7.24-0.056,10.652c-3.103,3.487-6.828,2.44-10.588,1.012
		c-18.032-6.857-36.09-13.65-54.142-20.459c-1.537-0.58-3.096-1.105-4.981-1.775c-4.339,8.052-8.589,15.935-12.834,23.819
		c-5.997,11.135-12.023,22.255-17.965,33.42c-1.778,3.341-4.048,5.733-8.168,5.312c-4.218-0.433-5.65-3.424-6.628-7.056
		c-14.636-54.452-29.319-108.891-44.002-163.329c-0.589-2.183-1.282-4.337-2.316-7.812c-8.133,30.164-15.887,58.898-23.625,87.639
		c-7.438,27.624-14.863,55.252-22.283,82.882c-0.981,3.656-2.131,7.124-6.678,7.657c-4.677,0.548-6.812-2.436-8.726-6.018
		c-9.092-17.029-18.265-34.016-27.414-51.013c-0.936-1.738-1.911-3.454-3.073-5.552c-12.341,4.587-24.455,9.087-36.566,13.595
		c-7.949,2.96-15.913,5.883-23.833,8.918c-3.936,1.508-7.514,1.414-10.541-1.815c-3.059-3.264-1.979-6.578-0.238-10.107
		c21.629-43.871,43.192-87.774,64.767-131.672c0.803-1.633,1.56-3.29,2.482-5.242c-10.794-1.936-13.818-9.534-14.037-18.958
		c-0.145-6.158-0.105-12.336,0.236-18.483c0.287-5.156-2.045-7.609-6.864-8.674c-6.972-1.54-14.066-2.857-20.758-5.249
		c-11.459-4.094-14.945-11.297-11.083-22.77c2.271-6.748,5.533-13.18,8.615-19.627c2.132-4.461,1.493-7.788-2.5-10.876
		c-5.524-4.274-11.149-8.531-16.056-13.468c-9.55-9.609-9.372-18.239,0.428-27.622c4.551-4.356,9.766-8.028,14.753-11.916
		c5.361-4.178,5.903-6.032,3.015-12.316c-2.015-4.383-4.244-8.669-6.203-13.074c-1.212-2.728-2.354-5.534-3.083-8.417
		c-2.231-8.824,0.385-15.328,8.784-18.855c6.675-2.803,13.896-4.435,20.994-6.074c9.411-2.172,9.838-2.625,9.9-12.152
		c0.045-7.136-0.026-14.365,1.071-21.379c1.433-9.162,7.163-13.86,16.463-13.217c8.075,0.558,16.108,2.345,24.04,4.124
		c5.236,1.174,8.105-0.54,10.266-5.217c3.129-6.778,6.164-13.704,10.227-19.92c5.977-9.145,13.396-10.856,22.771-5.286
		c6.25,3.712,11.832,8.576,17.586,13.085c5.207,4.081,7.102,4.248,12.315,0.256c4.892-3.744,9.542-7.836,14.641-11.268
		c12.631-8.504,21.201-6.488,28.864,6.729c2.829,4.881,5.111,10.084,7.557,15.184c3.057,6.373,4.91,7.324,11.789,5.818
		c6.492-1.421,12.927-3.257,19.49-4.158c11.591-1.589,18.261,3.234,20.058,14.836c0.958,6.186,0.709,12.603,0.571,18.906
		c-0.231,10.575,0.421,11.443,10.651,13.705c5.993,1.325,12.072,2.618,17.777,4.801c10.687,4.09,14.087,10.9,10.547,21.774
		c-2.304,7.074-5.679,13.841-9.047,20.507c-2.373,4.699-1.815,7.906,2.524,11.058c4.974,3.613,9.801,7.524,14.206,11.806
		c11.512,11.193,11.112,20.907-1.106,31.195c-4.07,3.427-8.515,6.406-12.722,9.676c-5.433,4.22-5.651,5.433-2.711,11.804
		c2.787,6.037,5.932,11.951,8.187,18.183c4.631,12.802,0.948,20.473-11.96,24.794c-6.122,2.05-12.584,3.089-18.902,4.539
		c-6.135,1.409-7.303,2.881-7.27,9.266c0.035,6.828,0.356,13.673-0.018,20.479C443.449,441.289,439.667,445.629,430.056,448.47z
		 M428.905,215.251c0.126-0.002,0.252-0.005,0.377-0.007c0-2.832-0.031-5.665,0.007-8.495c0.09-6.775-1.288-7.997-7.995-6.607
		c-4.885,1.013-9.693,2.39-14.574,3.418c-13.776,2.901-20.48-0.105-27.117-12.481c-2.825-5.268-5.054-10.854-7.652-16.248
		c-2.318-4.814-4.168-5.189-8.424-1.832c-5.618,4.432-11.079,9.073-16.844,13.305c-7.581,5.566-15.519,5.634-23.149,0.112
		c-5.658-4.093-11.018-8.601-16.498-12.939c-4.717-3.734-6.4-3.396-9.064,1.993c-3.166,6.41-6.109,12.937-9.441,19.258
		c-4.032,7.651-10.666,10.913-19.123,9.604c-7.383-1.142-14.658-2.965-21.994-4.425c-5.402-1.076-6.645-0.073-6.648,5.422
		c-0.004,6.164,0.352,12.336,0.113,18.489c-0.493,12.749-4.548,17.982-16.777,21.527c-5.577,1.617-11.335,2.625-17.028,3.832
		c-7.158,1.519-7.837,2.843-4.812,9.37c2.936,6.334,6.054,12.601,8.616,19.086c3.112,7.877,1.728,15.153-4.645,20.976
		c-5.28,4.826-10.83,9.358-16.289,13.989c-5.077,4.306-5.059,5.865-0.007,10.044c5.385,4.456,10.812,8.871,16.014,13.536
		c6.761,6.065,8.089,13.624,4.747,21.835c-2.502,6.148-5.499,12.105-8.453,18.058c-3.459,6.973-2.781,8.202,4.984,9.891
		c6.65,1.445,13.281,3.076,19.783,5.075c7.678,2.362,12.63,7.591,13.205,15.806c0.545,7.786,0.352,15.622,0.539,23.436
		c0.118,4.931,1.389,6.001,6.156,4.991c5.857-1.241,11.647-2.813,17.521-3.963c12.715-2.487,19.311,0.578,25.586,11.927
		c2.411,4.36,4.449,8.931,6.592,13.437c4.211,8.853,4.871,9.031,12.364,3.115c4.312-3.404,8.502-6.982,12.976-10.16
		c9.43-6.698,15.476-6.827,25.221-0.358c4.984,3.309,9.613,7.154,14.371,10.797c7.083,5.421,7.762,5.249,11.72-3.021
		c2.155-4.5,4.18-9.075,6.57-13.448c6.472-11.843,13.102-14.861,26.36-12.17c5.868,1.191,11.736,2.411,17.541,3.871
		c3.974,0.999,5.597-0.233,5.491-4.329c-0.159-6.161-0.249-12.332-0.102-18.491c0.322-13.394,4.468-18.939,17.282-22.811
		c5.081-1.536,10.325-2.57,15.539-3.618c8.789-1.766,9.149-2.496,5.19-10.798c-2.721-5.702-5.446-11.413-7.858-17.248
		c-3.65-8.835-2.108-16.683,5.344-22.961c5.347-4.504,10.919-8.741,16.271-13.24c4.141-3.478,4.112-5.303-0.046-8.729
		c-5.14-4.235-10.548-8.156-15.572-12.521c-8.138-7.071-9.896-14.151-5.803-24.146c2.515-6.144,5.661-12.034,8.611-17.994
		c3.083-6.234,2.447-7.499-4.423-9.112c-6.954-1.635-13.963-3.138-20.774-5.257c-7.854-2.443-12.562-7.971-13.376-16.329
		C429.106,223.58,429.095,219.408,428.905,215.251z M278.612,609.843c12.622-46.471,24.935-91.8,37.427-137.791
		c-16.266,8.399-23.185,6.326-31.576-9.021c-2.549-4.661-4.421-9.692-6.961-14.36c-1.037-1.905-2.738-4.024-4.638-4.771
		c-5.062-1.991-14.391,2.303-16.821,7.218c-19.911,40.264-39.823,80.526-59.721,120.795c-0.752,1.522-1.357,3.117-2.42,5.579
		c15.442-5.736,29.93-11.037,44.321-16.593c1.367-0.528,2.508-2.502,3.096-4.054c3.36-8.862,6.525-17.798,9.749-26.712
		c3.79-10.479,7.537-20.973,11.376-31.432c1.404-3.825,4.13-6.156,8.365-5.685c3.746,0.417,6.066,2.866,6.428,6.562
		c0.183,1.88-0.4,3.946-1.055,5.779c-6.656,18.637-13.342,37.265-20.172,55.839c-1.123,3.055-1.104,5.499,0.57,8.428
		c5.121,8.952,9.885,18.109,14.812,27.175C273.588,600.837,275.842,604.843,278.612,609.843z M391.411,610.47
		c1.363-2.324,2.227-3.708,3.004-5.137c6.203-11.396,12.278-22.861,18.649-34.161c1.884-3.34,2.148-6.106,0.613-9.738
		c-7.957-18.835-15.555-37.82-23.425-56.692c-1.533-3.676-1.566-6.764,1.571-9.445c4.55-3.89,9.646-2.368,12.188,3.784
		c7.869,19.052,15.554,38.182,23.593,57.161c0.95,2.242,3.337,4.56,5.604,5.447c12.536,4.905,25.237,9.384,37.889,13.99
		c1.45,0.528,2.944,0.933,5.16,1.627c-1.134-2.425-1.804-3.94-2.54-5.423c-19.316-38.865-38.818-77.64-57.779-116.678
		c-3.076-6.336-7.11-9.273-13.633-10.275c-4.577-0.703-7.662,0.334-9.643,4.801c-2.488,5.616-5.112,11.212-8.174,16.53
		c-6.972,12.117-15.58,16.784-28.725,8.138c-0.24-0.157-0.619-0.104-1.577-0.239C366.541,519.399,378.825,564.384,391.411,610.47z"
		/>
	<path fill-rule="evenodd" clip-rule="evenodd" fill="#FFFFFF" d="M428.905,215.251c0.189,4.157,0.201,8.329,0.604,12.464
		c0.813,8.358,5.522,13.886,13.376,16.329c6.812,2.119,13.82,3.623,20.774,5.257c6.87,1.614,7.506,2.878,4.423,9.112
		c-2.95,5.96-6.097,11.85-8.611,17.994c-4.094,9.995-2.335,17.075,5.803,24.146c5.024,4.366,10.433,8.287,15.572,12.521
		c4.158,3.425,4.187,5.25,0.046,8.729c-5.353,4.499-10.925,8.735-16.271,13.24c-7.452,6.278-8.994,14.126-5.344,22.961
		c2.412,5.835,5.138,11.545,7.858,17.248c3.959,8.302,3.599,9.032-5.19,10.798c-5.214,1.047-10.458,2.082-15.539,3.618
		c-12.814,3.872-16.96,9.417-17.282,22.811c-0.147,6.159-0.058,12.33,0.102,18.491c0.105,4.096-1.518,5.328-5.491,4.329
		c-5.805-1.46-11.673-2.68-17.541-3.871c-13.259-2.691-19.889,0.327-26.36,12.17c-2.391,4.373-4.415,8.948-6.57,13.448
		c-3.958,8.27-4.637,8.441-11.72,3.021c-4.758-3.643-9.387-7.488-14.371-10.797c-9.745-6.469-15.791-6.34-25.221,0.358
		c-4.474,3.178-8.663,6.756-12.976,10.16c-7.493,5.916-8.153,5.737-12.364-3.115c-2.143-4.506-4.181-9.076-6.592-13.437
		c-6.275-11.349-12.871-14.414-25.586-11.927c-5.874,1.149-11.664,2.722-17.521,3.963c-4.768,1.01-6.038-0.061-6.156-4.991
		c-0.188-7.813,0.006-15.649-0.539-23.436c-0.575-8.215-5.527-13.444-13.205-15.806c-6.502-2-13.133-3.63-19.783-5.075
		c-7.766-1.688-8.443-2.918-4.984-9.891c2.954-5.953,5.95-11.91,8.453-18.058c3.342-8.212,2.014-15.771-4.747-21.835
		c-5.201-4.665-10.628-9.081-16.014-13.536c-5.052-4.179-5.07-5.739,0.007-10.044c5.458-4.63,11.008-9.163,16.289-13.989
		c6.372-5.823,7.756-13.099,4.645-20.976c-2.562-6.485-5.68-12.752-8.616-19.086c-3.025-6.527-2.346-7.852,4.812-9.37
		c5.692-1.207,11.451-2.215,17.028-3.832c12.229-3.544,16.284-8.778,16.777-21.527c0.238-6.152-0.117-12.325-0.113-18.489
		c0.004-5.495,1.246-6.498,6.648-5.422c7.336,1.46,14.611,3.283,21.994,4.425c8.457,1.309,15.091-1.953,19.123-9.604
		c3.332-6.321,6.275-12.848,9.441-19.258c2.664-5.389,4.348-5.727,9.064-1.993c5.48,4.338,10.84,8.846,16.498,12.939
		c7.631,5.522,15.568,5.454,23.149-0.112c5.765-4.232,11.226-8.873,16.844-13.305c4.256-3.357,6.105-2.982,8.424,1.832
		c2.599,5.394,4.827,10.98,7.652,16.248c6.637,12.375,13.341,15.382,27.117,12.481c4.881-1.028,9.689-2.405,14.574-3.418
		c6.707-1.39,8.085-0.168,7.995,6.607c-0.038,2.831-0.007,5.663-0.007,8.495C429.157,215.247,429.031,215.25,428.905,215.251z
		 M334.989,208.841c-59.097-0.092-107.591,48.195-107.696,107.241c-0.108,59.495,48.602,108.785,107.523,108.802
		c59.359,0.019,107.868-48.341,107.96-107.63C442.868,257.776,394.308,208.934,334.989,208.841z"/>
	<path fill-rule="evenodd" clip-rule="evenodd" fill="#FFFFFF" d="M278.612,609.843c-2.771-5-5.024-9.006-7.22-13.044
		c-4.928-9.065-9.691-18.223-14.812-27.175c-1.675-2.929-1.693-5.373-0.57-8.428c6.83-18.574,13.516-37.202,20.172-55.839
		c0.654-1.833,1.237-3.899,1.055-5.779c-0.361-3.696-2.682-6.146-6.428-6.562c-4.235-0.472-6.961,1.859-8.365,5.685
		c-3.839,10.459-7.586,20.953-11.376,31.432c-3.224,8.914-6.389,17.85-9.749,26.712c-0.588,1.552-1.729,3.525-3.096,4.054
		c-14.391,5.556-28.879,10.856-44.321,16.593c1.063-2.462,1.668-4.057,2.42-5.579c19.897-40.269,39.81-80.531,59.721-120.795
		c2.431-4.915,11.76-9.209,16.821-7.218c1.899,0.747,3.601,2.866,4.638,4.771c2.54,4.668,4.412,9.699,6.961,14.36
		c8.392,15.348,15.311,17.421,31.576,9.021C303.547,518.043,291.234,563.372,278.612,609.843z"/>
	<path fill-rule="evenodd" clip-rule="evenodd" fill="#FFFFFF" d="M391.411,610.47c-12.586-46.086-24.87-91.07-37.225-136.311
		c0.958,0.136,1.337,0.082,1.577,0.239c13.145,8.646,21.753,3.979,28.725-8.138c3.062-5.318,5.686-10.914,8.174-16.53
		c1.98-4.467,5.065-5.504,9.643-4.801c6.522,1.002,10.557,3.939,13.633,10.275c18.961,39.038,38.463,77.812,57.779,116.678
		c0.736,1.482,1.406,2.998,2.54,5.423c-2.216-0.694-3.71-1.099-5.16-1.627c-12.651-4.606-25.353-9.085-37.889-13.99
		c-2.267-0.888-4.653-3.205-5.604-5.447c-8.039-18.979-15.724-38.109-23.593-57.161c-2.541-6.152-7.638-7.674-12.188-3.784
		c-3.138,2.682-3.104,5.77-1.571,9.445c7.87,18.872,15.468,37.857,23.425,56.692c1.535,3.632,1.271,6.398-0.613,9.738
		c-6.371,11.3-12.446,22.766-18.649,34.161C393.638,606.762,392.774,608.146,391.411,610.47z"/>
	<path fill-rule="evenodd" clip-rule="evenodd" d="M334.989,208.841c59.318,0.093,107.879,48.936,107.787,108.413
		c-0.092,59.289-48.601,107.648-107.96,107.63c-58.922-0.018-107.632-49.307-107.523-108.802
		C227.398,257.036,275.893,208.749,334.989,208.841z M427.693,316.362c-0.144-51.287-41.748-92.615-93.086-92.467
		c-50.729,0.146-92.452,42.481-92.225,93.573c0.229,50.921,41.902,92.391,92.823,92.364
		C385.74,409.808,427.835,367.265,427.693,316.362z"/>
	<path fill-rule="evenodd" clip-rule="evenodd" fill="#FFFFFF" d="M427.693,316.362c0.142,50.903-41.953,93.445-92.487,93.471
		c-50.921,0.026-92.595-41.443-92.823-92.364c-0.228-51.092,41.496-93.427,92.225-93.573
		C385.945,223.747,427.55,265.075,427.693,316.362z M292.027,368.16c-0.238,6.746,6.013,10.431,12.266,7.212
		c9.021-4.647,17.993-9.404,26.818-14.41c3.236-1.835,5.734-2.083,9.109-0.132c8.638,4.994,17.629,9.373,26.323,14.273
		c3.688,2.079,7.461,2.336,10.073-0.506c1.777-1.934,2.722-5.671,2.343-8.364c-1.413-10.04-3.324-20.025-5.48-29.936
		c-0.785-3.606,0.065-5.843,2.655-8.265c7.541-7.056,15.053-14.169,22.104-21.701c1.84-1.965,3.261-5.98,2.496-8.255
		c-0.756-2.249-4.33-4.487-6.996-4.991c-10.293-1.944-20.7-3.335-31.104-4.614c-3.202-0.394-4.903-1.671-6.25-4.558
		c-4.5-9.646-9.053-19.286-14.139-28.626c-1.275-2.343-4.411-4.413-7.075-5.08c-3.593-0.9-6.014,1.725-7.63,5.057
		c-4.428,9.128-9.225,18.083-13.471,27.292c-1.61,3.491-3.816,4.901-7.447,5.347c-10.074,1.238-20.166,2.48-30.138,4.326
		c-2.694,0.499-5.815,2.635-7.265,4.946c-1.929,3.077-0.19,6.191,2.547,8.769c8.006,7.535,15.934,15.161,23.598,23.038
		c1.408,1.447,2.256,4.347,1.972,6.382C295.796,346.399,293.818,357.375,292.027,368.16z"/>
	<path fill-rule="evenodd" clip-rule="evenodd" d="M292.027,368.16c1.791-10.785,3.769-21.761,5.31-32.797
		c0.284-2.035-0.563-4.935-1.972-6.382c-7.664-7.877-15.592-15.503-23.598-23.038c-2.737-2.578-4.476-5.692-2.547-8.769
		c1.449-2.311,4.57-4.447,7.265-4.946c9.972-1.846,20.063-3.087,30.138-4.326c3.631-0.446,5.837-1.856,7.447-5.347
		c4.246-9.208,9.043-18.164,13.471-27.292c1.616-3.332,4.037-5.957,7.63-5.057c2.664,0.667,5.8,2.737,7.075,5.08
		c5.086,9.341,9.639,18.98,14.139,28.626c1.347,2.887,3.048,4.165,6.25,4.558c10.403,1.279,20.811,2.67,31.104,4.614
		c2.666,0.504,6.24,2.742,6.996,4.991c0.765,2.274-0.656,6.29-2.496,8.255c-7.051,7.531-14.562,14.645-22.104,21.701
		c-2.59,2.422-3.44,4.659-2.655,8.265c2.156,9.911,4.067,19.896,5.48,29.936c0.379,2.693-0.565,6.431-2.343,8.364
		c-2.612,2.842-6.385,2.585-10.073,0.506c-8.694-4.9-17.686-9.28-26.323-14.273c-3.375-1.951-5.873-1.704-9.109,0.132
		c-8.825,5.006-17.797,9.763-26.818,14.41C298.04,378.591,291.789,374.906,292.027,368.16z M335.765,274.32
		c-3.396,7.02-6.54,12.894-9.107,19.009c-2.336,5.561-6.169,8.151-12.108,8.738c-6.445,0.637-12.822,1.977-20.468,3.209
		c6.325,6.155,11.647,11.403,17.054,16.563c2.997,2.862,4.215,5.913,3.242,10.256c-1.656,7.4-2.637,14.951-4.054,23.339
		c6.81-3.614,12.934-6.553,18.731-10.033c5.118-3.074,9.696-3.209,14.872-0.059c5.819,3.543,12.023,6.455,18.85,10.058
		c-1.419-8.327-2.472-15.551-3.929-22.691c-0.97-4.756,0.34-8.379,3.803-11.631c5.281-4.961,10.378-10.117,16.276-15.898
		c-9.026-1.322-16.715-2.627-24.45-3.512c-4.266-0.487-6.854-2.305-8.588-6.316C342.938,288.528,339.464,281.93,335.765,274.32z"/>
	<path fill-rule="evenodd" clip-rule="evenodd" fill="#FFFFFF" d="M335.765,274.32c3.699,7.61,7.174,14.208,10.124,21.033
		c1.734,4.011,4.322,5.829,8.588,6.316c7.735,0.885,15.424,2.19,24.45,3.512c-5.898,5.782-10.995,10.938-16.276,15.898
		c-3.463,3.252-4.772,6.875-3.803,11.631c1.457,7.141,2.51,14.365,3.929,22.691c-6.826-3.603-13.03-6.515-18.85-10.058
		c-5.176-3.151-9.754-3.015-14.872,0.059c-5.798,3.48-11.922,6.419-18.731,10.033c1.417-8.388,2.397-15.939,4.054-23.339
		c0.973-4.344-0.245-7.395-3.242-10.256c-5.406-5.161-10.729-10.409-17.054-16.563c7.646-1.233,14.022-2.573,20.468-3.209
		c5.939-0.587,9.772-3.177,12.108-8.738C329.225,287.214,332.369,281.34,335.765,274.32z"/>
</g>
</svg>
